<svg xmlns="http://www.w3.org/2000/svg" xmlns:xlink="http://www.w3.org/1999/xlink" width="400" height="400" viewBox="0 0 400 400">
<rect data-name="background" width="100%" height="100%" fill="none"/><g data-name="icon" fill="#000000" data="id:1681601" transform="translate(132.36645161290323,97.36741204267527) scale(2.113548387096774)">
  <title>organizing-logic-arrangement-organizing-puzzle</title><path d="M62,1H2A1,1,0,0,0,1,2V62a1,1,0,0,0,1,1H62a1,1,0,0,0,1-1V2A1,1,0,0,0,62,1ZM42,41H33V33H51v9a1,1,0,0,0,1,1h9v8H43V42A1,1,0,0,0,42,41ZM13,41V33h9a1,1,0,0,0,1-1V23H41v8H32a1,1,0,0,0-1,1v9ZM3,13h8v9a1,1,0,0,0,1,1h9v8H12a1,1,0,0,0-1,1v9H3ZM61,41H53V13h8Zm0-30H52a1,1,0,0,0-1,1V31H43V3H61ZM41,21H33V12a1,1,0,0,0-1-1H23V3H41ZM3,3H21v9a1,1,0,0,0,1,1h9v8H13V12a1,1,0,0,0-1-1H3ZM3,43h8v9a1,1,0,0,0,1,1h9v8H3Zm28,9v9H23V52a1,1,0,0,0-1-1H13V43H41v8H32A1,1,0,0,0,31,52Zm30,9H33V53H61Z"/><rect x="57" y="57" width="2" height="2"/><rect x="53" y="57" width="2" height="2"/><rect x="49" y="57" width="2" height="2"/>
  </g><g data-name="business_name" fill="#000000" data="id:310" transform="translate(58.45139681144217,218.7654315150863) scale(1.689123946988565)"><path d="M23.72,22.08l-10.12,0l0,25.92l-2.8,0l0-25.92l-10.12,0l0-2.48l23.04,0l0,2.48z M25.72,42q0-1.96,1.12-3.38t3.1-2.2t4.58-0.78q1.52,0,3.16,0.24t2.92,0.72l0-1.76q0-2.64-1.56-4.2t-4.32-1.56q-1.68,0-3.3,0.62t-3.38,1.82l-1.04-1.92q2.04-1.4,4-2.1t4-0.7q3.84,0,6.08,2.2t2.24,6.08l0,9.64q0,0.56,0.24,0.82t0.76,0.3l0,2.16q-0.44,0.04-0.76,0.08t-0.48,0q-1-0.04-1.52-0.64t-0.56-1.28l-0.04-1.52q-1.4,1.8-3.64,2.78t-4.56,0.98q-2,0-3.62-0.86t-2.52-2.32t-0.9-3.22z M39.68,43.6q0.44-0.56,0.68-1.08t0.24-0.92l0-3.04q-1.36-0.52-2.82-0.8t-2.94-0.28q-2.92,0-4.72,1.16t-1.8,3.16q0,1.16,0.6,2.18t1.76,1.68t2.72,0.66q1.96,0,3.66-0.76t2.62-1.96z M56.04,48.4q-2.56,0-4.76-0.84t-3.8-2.56l1.12-1.92q1.76,1.64,3.54,2.38t3.78,0.74q2.44,0,3.96-0.98t1.52-2.82q0-1.24-0.74-1.9t-2.12-1.08t-3.3-0.9q-2.16-0.6-3.62-1.26t-2.2-1.68t-0.74-2.66q0-2.04,1.02-3.38t2.8-2.04t3.98-0.7q2.4,0,4.24,0.76t3,2.12l-1.32,1.84q-1.12-1.28-2.66-1.9t-3.42-0.62q-1.28,0-2.44,0.34t-1.9,1.12t-0.74,2.14q0,1.12,0.56,1.74t1.68,1.04t2.76,0.9q2.36,0.64,4.12,1.3t2.72,1.7t0.96,2.92q0,2.92-2.2,4.56t-5.8,1.64z M83.4,48l-7.72-10.68l-4.44,4.16l0,6.52l-2.72,0l0-29.2l2.72,0l0,19.76l11.8-11.36l3,0l-8.52,8.52l8.84,12.28l-2.96,0z  M121.84,40.68q0,2.12-1.08,3.78t-2.9,2.6t-3.98,0.94l-13.4,0l0-28.4l13.68,0q2,0,3.46,1.06t2.24,2.72t0.78,3.46q0,2.12-1.08,3.92t-3,2.68q2.44,0.72,3.86,2.68t1.42,4.56z M119.04,40.2q0-1.44-0.64-2.66t-1.74-1.98t-2.5-0.76l-10.88,0l0,10.76l10.6,0q1.44,0,2.6-0.76t1.86-1.98t0.7-2.62z M103.28,22.04l0,10.48l9.76,0q1.4,0,2.48-0.74t1.72-1.94t0.64-2.56q0-1.44-0.6-2.62t-1.64-1.9t-2.36-0.72l-10,0z M135.44,48.4q-2.24,0-4.14-0.86t-3.28-2.36t-2.14-3.44t-0.76-4.1q0-2.24,0.76-4.18t2.16-3.44t3.3-2.36t4.14-0.86t4.12,0.86t3.28,2.36t2.16,3.44t0.76,4.18q0,2.16-0.76,4.1t-2.14,3.44t-3.28,2.36t-4.18,0.86z M127.88,37.68q0,2.32,1.02,4.22t2.74,3t3.8,1.1t3.8-1.12t2.76-3.06t1.04-4.22q0-2.32-1.04-4.24t-2.76-3.04t-3.8-1.12t-3.78,1.16t-2.74,3.06t-1.04,4.26z M151,27.16l6.12,8.16l0.32,0.6l0.32-0.6l6.08-8.16l3.08,0l-7.92,10.48l7.92,10.36l-3.08,0l-6.08-8.12l-0.32-0.56l-0.32,0.56l-6.08,8.12l-3.08,0l7.88-10.36l-7.88-10.48l3.04,0z"/></g></svg>